<svg width="32" height="34" viewBox="0 0 32 34" fill="none" xmlns="http://www.w3.org/2000/svg">
<path d="M2.24493 27.5333C2.48636 29.3033 3.69281 30.835 5.38213 31.5156C6.20973 31.8556 7.10588 31.958 8.00237 31.8556C8.86407 31.7536 9.72612 31.4813 10.6223 30.9713C11.8635 30.29 13.1047 29.2353 14.5526 27.6696C12.2771 24.9129 10.8985 22.3942 10.3812 20.1485C10.1398 19.0932 10.1053 18.1402 10.2086 17.2552C10.3464 16.4045 10.6567 15.6215 11.1396 14.9408C12.2083 13.4095 14.0009 12.5245 16.0005 12.5245C18.0001 12.5245 19.7928 13.4435 20.8615 14.9408C21.3443 15.6215 21.6543 16.4045 21.7924 17.2552C21.9302 18.1402 21.8957 19.1272 21.6198 20.1485C21.1029 22.3942 19.6894 24.9469 17.4484 27.7033C18.8618 29.2693 20.1375 30.3243 21.3788 31.005C22.2749 31.5156 23.137 31.788 23.9987 31.8896C24.9296 31.992 25.8261 31.8556 26.6189 31.5496C28.3082 30.869 29.5147 29.3369 29.7561 27.5673C29.8594 26.7166 29.7905 25.8659 29.4458 24.9129C29.3425 24.5722 29.1699 24.2326 28.9977 23.8239C28.7563 23.2796 28.4804 22.7006 28.2049 22.1219L28.1701 22.0542C25.7916 16.9828 23.2403 11.8098 20.5856 6.77307L20.4823 6.5684C20.2064 6.0584 19.9309 5.51407 19.6547 5.00339C19.3791 4.45872 19.0688 3.94804 18.6896 3.50537C17.9657 2.68835 17.0003 2.24602 15.9316 2.24602C14.8629 2.24602 13.8976 2.68835 13.1736 3.50537C12.7944 3.94804 12.4841 4.45872 12.2083 5.00339C11.9324 5.51407 11.6569 6.0584 11.381 6.5684L11.2773 6.77307C8.65743 11.8438 6.10607 17.0168 3.72725 22.0882V22.1219C3.45139 22.6666 3.2103 23.2796 2.93443 23.8239C2.76188 24.2326 2.58968 24.5722 2.48636 24.9129C2.21049 25.7976 2.10717 26.6489 2.24493 27.5333ZM16.0005 25.9336C17.862 23.6196 19.0688 21.4412 19.4825 19.6039C19.6547 18.8209 19.6894 18.1402 19.5858 17.5275C19.5169 16.9828 19.3099 16.5062 19.0344 16.0975C18.3793 15.1795 17.2762 14.5998 16.0005 14.5998C14.7248 14.5998 13.5873 15.1448 12.9666 16.0975C12.6911 16.5062 12.4841 16.9828 12.4152 17.5275C12.3119 18.1402 12.3464 18.8549 12.5186 19.6039C12.9322 21.4075 14.139 23.5856 16.0005 25.9336ZM0.452297 24.1639C0.6245 23.7556 0.797049 23.3132 0.969252 22.9389C1.24512 22.3266 1.52099 21.7475 1.76242 21.2029L1.79686 21.1692C4.17533 16.0638 6.72669 10.8908 9.41581 5.7864L9.51913 5.58172C9.795 5.07105 10.0709 4.52638 10.3464 3.98204C10.6915 3.36903 11.0362 2.72303 11.5876 2.11002C12.6911 0.748673 14.2768 0 15.9661 0C17.6898 0 19.241 0.748673 20.3789 2.04236C20.8959 2.65469 21.2751 3.30137 21.6198 3.91438C21.8957 4.45872 22.1716 5.00339 22.4475 5.51406L22.5508 5.71772C25.2051 10.8228 27.7909 15.9962 30.1697 21.1012L30.2042 21.1692C30.4456 21.7135 30.7215 22.2919 30.9973 22.9049C31.1695 23.2796 31.3421 23.6879 31.5143 24.1302C31.9627 25.3892 32.1005 26.5806 31.9283 27.8056C31.5487 30.3583 29.825 32.5027 27.4462 33.4553C26.55 33.83 25.6191 34 24.6537 34C24.3778 34 24.0331 33.966 23.7572 33.9317C22.6197 33.7953 21.4476 33.4217 20.3101 32.7747C18.8963 31.992 17.5517 30.869 16.035 29.2353C14.5182 30.869 13.1392 31.992 11.7602 32.7747C10.6223 33.4217 9.45025 33.7953 8.31268 33.9317C8.03681 33.966 7.69206 34 7.41619 34C6.45082 34 5.48579 33.83 4.62374 33.4553C2.21049 32.5027 0.521177 30.3243 0.141987 27.8056C-0.133884 26.6143 0.00422478 25.4236 0.452297 24.1639Z" fill="white"/>
</svg>
